<svg id="Layer_1" data-name="Layer 1" xmlns="http://www.w3.org/2000/svg" width="11in" height="11.5in" viewBox="0 0 792 827"><title>Artboard 1</title><path d="M747,445.4c-.6.6-1.5,1-1.7,1.7-4.9,14.9-15.4,26.2-24.8,38a383.9,383.9,0,0,1-32.2,35.3A235.7,235.7,0,0,1,639.1,557c-15.6,8.8-32,15.5-49.6,17.8-12.2,1.7-24.8,1.2-37.1.5-17.8-.9-34.3-7.1-50-15.2a238.1,238.1,0,0,1-49.3-34.9,346.6,346.6,0,0,1-57.5-67.5c-5.1-7.6-6.7-16.2-7.5-24.9-1.5-16.7,1.5-32.8,9.7-47.5a110.1,110.1,0,0,1,22.5-28.1,160.7,160.7,0,0,1,39.1-25.3c19.9-9.4,40.5-17.2,62-22,10.9-2.4,22.2-3.3,33.4-4.4,36.3-3.5,70.4,5.5,103.8,18.7,18,7.1,35.2,15.4,50.5,27.3s28.1,27,34.6,46.3c1,2.9,2.2,5.7,3.3,8.6Zm-58-16.1L718.2,445a47.1,47.1,0,0,0,3.9-25.4,61.5,61.5,0,0,0-11.6-30.1c-11-15.5-26.6-25.7-43.3-33.5s-33.9-13.4-51.3-18.9a147.9,147.9,0,0,0-44.4-6.6,154,154,0,0,0-19.3,1c-10.5,1.4-21.1,2.6-31.2,5.2s-22.6,7.5-33.7,11.6c-20.8,7.5-40.1,17.4-55.5,33.8-11.2,11.9-18.3,25.5-17.8,42.2v1.2c0,6.6-.3,13.2,4.1,19.1L447,429.3l.9-.8a21.3,21.3,0,0,0,1.1-3.3c2.3-13.8,15.4-24.9,29.4-25.9,18-1.2,36,14.6,34.8,33.9-.9,14.3-10.2,26.8-24.1,30.4-7.5,1.9-14.8.4-22-1.2h-1.2l-25.7,13.2c12.1,11.9,23,23.3,34.6,34a168.9,168.9,0,0,0,55.6,34.6c19.2,7.3,39.1,8.4,58.9,4.7s38.7-14.3,55.8-26.2,31.2-26.3,44.9-41.4l.9-.8c1-1.4,2.1-2.7,3.1-4v-1.2l-23.9-12.9h-1.2l-3.3.7c-8.1,2-16.2,2.5-23.9-1.1-10.6-5-17.1-13.7-18.6-25.3-1.7-13.7,3.3-24.8,14.9-32.5,17.4-11.5,43.6-1.5,48.6,18.6l1.5,5.7Z" fill="#d9c4ae"/><path d="M48,819.4c1.3-2.2,3.2-4.2,3.9-6.6,7.1-21.2,21-36.8,38.7-49.7s39.1-23,60.8-29.7c16-5,32.3-9.9,48.8-12.5s31.5-3.8,47.3-.6c13.6,2.7,27.5,4,40.8,7.6s26.8,9.4,40,14.7a161,161,0,0,1,38.3,21.7c21.2,16.2,36.7,36,40.5,63.5,2.1,15,1.4,29.7-6,42.9a177.1,177.1,0,0,1-19.2,27.1c-11.1,13-22.5,25.8-34.7,37.7-20.4,19.7-43.5,35.6-70,46.2-7.5,2.9-15.5,4.5-23.3,6.7-1.7.5-3.3,1.4-4.9,2H206l-5.4-2c-12.9-4.6-26.2-8-38.4-14-29.7-14.4-53.2-37-75.3-61l-.9-.9c-5.5-6.7-11.4-13.2-16.5-20.2-7-9.7-15.2-18.8-19-30.5a21.6,21.6,0,0,0-2.5-4.4v-38Zm307,70.4c-7.6-4.1-14.3-7.9-21.3-11.4a11.1,11.1,0,0,0-6.9-1.2c-5.9,1.3-11.7,2.5-18,1.3-16.2-3-27.3-17.8-26.5-33.1,1.1-18.7,15.9-33.7,37.3-31.1A31.8,31.8,0,0,1,346.8,839a8.2,8.2,0,0,0,4.7,6.3c7.9,4.1,15.8,8.3,23.6,12.7,2.6,1.4,4.5.8,4.7-1.9.9-8.2,2.8-16.6,1.8-24.6-2.5-19.6-13.9-34.2-29.4-46-13.3-10.1-28.2-17.2-43.6-23.2-29.8-11.6-60.2-20.3-92.7-16.8-10.5,1.1-21.2,1.8-31.3,4.4-24,6.2-47.3,14.3-68.6,27.1-15.9,9.5-29.8,21.2-37.5,38.6-6.3,14.1-7.7,28.5-1.2,43.5,8.4-4.5,16.4-9.2,24.8-13,3.9-1.8,5.9-4,6.9-8a32.3,32.3,0,0,1,40.4-23c18.3,5.6,27.3,23.2,22,41.7-3.4,11.7-18.5,24.6-34.8,21.7-3.9-.7-8.3-2.5-11.5-1.3-8.2,3.3-15.9,8-24.2,12.3a28.4,28.4,0,0,0,3.1,4.3c9.1,9.2,18,18.6,27.4,27.5,15.9,14.8,33.6,26.9,53.7,35.2,25.1,10.4,50.6,11.9,76.5,3.2,17.9-6,33.9-15.4,48.9-26.9S340.9,905.3,355,889.8Z" fill="#d9c4ae"/><path d="M248-109.6c7.5,1.6,15.1,2.8,22.5,4.8,13.2,3.6,26.5,6.9,39.4,11.5,19.4,6.9,38,15.5,54.9,27.6C386-50.5,401.3-31.1,406.5-5.2c4,20.1,1.1,39-11.5,56.6a377.2,377.2,0,0,1-52,59.3c-20.7,18.9-43.5,34.5-70.3,43.8-17.5,6.1-35.4,9-53.7,7.8a141.5,141.5,0,0,1-50.4-13.6c-28.4-13.2-52.2-32.5-73.6-54.9A351,351,0,0,1,53.9,41.6c-1.8-2.8-2.5-6.4-3.9-9.5a12.6,12.6,0,0,0-2-2.7v-38c1-1.5,2.4-2.9,2.9-4.5,6.5-21.3,20-37.3,37.4-50.6a174.2,174.2,0,0,1,49.5-26.6c15.5-5.5,31.3-10.1,47.2-14.6,7.5-2.2,15.3-3.2,23-4.7ZM100.8,61.2c3.2,3.8,5.8,7.2,8.8,10.3,12.7,13.1,25.7,26,40.6,36.7,20.5,14.6,42.6,25.6,67.9,28.1,19.9,1.9,39-2.1,57-10.5A193.8,193.8,0,0,0,318,98.2a270.4,270.4,0,0,0,36.8-37.3C347.2,57,340,53,332.6,49.4a10.3,10.3,0,0,0-6.9-.7c-7.6,2.4-15.2,2.6-22.4-.4-19.3-8.2-28.1-31-14.4-49.7,7.6-10.3,21.3-16.2,33.3-12.8s22,11.8,24.9,25.7a7,7,0,0,0,3.1,4.4c8.9,4.9,18.1,9.6,27.5,14.5.7-1.1,2-2.1,2.1-3.2.8-8.2,2.8-16.6,1.8-24.6-2.2-19.3-14.1-33.3-28.5-45.1-11.9-9.7-25.7-16.2-39.8-22-30.2-12.3-61.1-21.4-94.3-19-10.9.8-22.1,2-32.7,4.5-25.3,6-49.5,15-71.8,28.3A101.2,101.2,0,0,0,87.9-28.5,63.8,63.8,0,0,0,73.2,7.7a40.6,40.6,0,0,0,4.4,22.9c9.8-5.2,19.3-10.2,28.7-15.4,1-.6,1.4-2.4,1.8-3.8C110.9,1.8,115.9-6,124.9-11c17.1-9.7,43.3-.3,47.6,22.9s-16.2,42.8-37.9,37.8c-3.1-.7-7-2.6-9.4-1.5C117,51.9,109.2,56.6,100.8,61.2Z" fill="#d9c4ae"/><path d="M567.6,512.4c-23.6,1.5-44.7-20.1-44.4-44.4s19.1-44.6,44.9-44.5,44.6,19.1,44.8,44.7S591.5,513.9,567.6,512.4Z" fill="#d9c4ae"/><path d="M227.6,98.4c-23.5.4-44.6-20-44.7-44.5S203.2,7.5,230.8,9.2c20.9,1.4,42.1,18.7,41.9,44.8C272.5,78.4,253.7,98.4,227.6,98.4Z" fill="#d9c4ae"/></svg>